# xmcd
#
# Track frame offsets:
#	150
#	9938
#	21211
#	38361
#	51377
#	59384
#	77332
#	96910
#	110054
#	122022
#
# Disc length: 1861 seconds
#
# Revision: 0
# Processed by: cddbd v1.5.1PL0 Copyright (c) Steve Scherf et al.
# Submitted via: audiograbber 1.83.01
#
DISCID=7307430a
DTITLE=Johnny Cash - The Walls Of A Prison
DYEAR=1970
DGENRE=
TTITLE0=Johnny Cash - Great Speckled Bird
TTITLE1=Johnny Cash - Clementine
TTITLE2=Johnny Cash - The Ballad Of Boot Hill
TTITLE3=Johnny Cash - I'd Rather Die Young
TTITLE4=Johnny Cash - Guess Things Happen That Way
TTITLE5=Johnny Cash - The Walls Of A Prison
TTITLE6=Johnny Cash - Going To Memphis
TTITLE7=Johnny Cash - The Shifting Whispering Sands
TTITLE8=Johnny Cash - When It's Springtime In Alaska (It's Forty Below)
TTITLE9=Johnny Cash - Troublesome Waters
EXTD=
EXTT0=
EXTT1=
EXTT2=
EXTT3=
EXTT4=
EXTT5=
EXTT6=
EXTT7=
EXTT8=
EXTT9=
PLAYORDER=
